<?xml version="1.0" encoding="utf-8"?>
<!-- Generator: Adobe Illustrator 16.0.0, SVG Export Plug-In . SVG Version: 6.00 Build 0)  -->
<!DOCTYPE svg PUBLIC "-//W3C//DTD SVG 1.1//EN" "http://www.w3.org/Graphics/SVG/1.1/DTD/svg11.dtd">
<svg version="1.1" id="Layer_1" xmlns="http://www.w3.org/2000/svg" xmlns:xlink="http://www.w3.org/1999/xlink" x="0px" y="0px"
	 width="32px" height="32px" viewBox="0 0 32 32" enable-background="new 0 0 32 32" xml:space="preserve">
<polygon fill="#030303" points="20,8.479 20,6.479 20,5.479 18,5.479 18,4.479 18,3.479 20,3.479 20,2.948 20,1.479 19,1.479 
	19,0.521 13,0.521 13,1.479 12,1.479 12,2.479 14,2.479 14,3.479 12,3.479 12,4.479 12,5.479 14,5.479 14,6.479 12,6.479 12,8.479 
	12,9.479 11,9.479 11,12.479 12.032,12.479 13,12.479 13,17.479 14,17.479 14,18.061 14,24.479 14,28.479 15,28.479 15,31.479 
	17,31.479 17,28.479 18,28.479 18,24.479 18,18.061 18,17.479 19,17.479 19,12.479 20.29,12.479 21,12.479 21,9.479 20,9.479 "/>
</svg>
