<svg xmlns="http://www.w3.org/2000/svg" width="541" height="313" viewBox="0 0 541 313"><path fill="#86782A" d="M271 1C121.883 1 1 70.843 1 157c0 86.156 120.883 156 270 156 149.117 0 270-69.844 270-156C541 70.843 420.117 1 271 1zM145.428 122.914c1.519 2.175 3.698 4.23 6.535 6.164 2.835 1.93 6.287 3.74 10.355 5.426 4.069 1.686 8.65 3.346 13.747 4.992 9.533 3.041 18.04 6.408 25.52 10.107 7.479 3.697 13.787 7.93 18.926 12.697 5.135 4.768 9.039 10.154 11.711 16.152 2.672 6 4.008 12.781 4.008 20.342 0 8.059-1.584 15.226-4.748 21.515s-7.643 11.569-13.437 15.845c-5.795 4.273-12.781 7.521-20.96 9.74-8.178 2.219-17.279 3.329-27.309 3.329-6.163 0-12.287-.507-18.369-1.534-6.083-1.023-11.896-2.594-17.444-4.729-5.547-2.139-10.727-4.801-15.534-8.051-4.81-3.246-8.96-7.072-12.452-11.596-3.496-4.518-6.249-9.545-8.261-15.299C95.701 202.26 94.694 196 94.694 189h43.398c0 5 .698 9.461 2.097 13.035 1.396 3.576 3.451 6.254 6.164 8.473 2.712 2.219 6.019 3.801 9.924 4.744 3.902.947 8.403 1.422 13.499 1.422 4.109 0 7.623-.475 10.543-1.422 2.915-.943 5.32-2.219 7.211-3.82s3.269-3.471 4.131-5.609c.863-2.137 1.295-4.395 1.295-6.781 0-2.795-.392-5.318-1.172-7.582-.783-2.258-2.324-4.395-4.623-6.412-2.301-2.01-5.528-4.004-9.678-5.98-4.151-1.971-9.597-4.064-16.336-6.283a244.113 244.113 0 0 1-22.808-8.877c-7.315-3.287-13.808-7.191-19.479-11.713-5.672-4.52-10.214-9.8-13.624-15.843-3.411-6.043-5.117-13.089-5.117-21.144 0-7.725 1.726-14.689 5.179-20.894 3.452-6.204 8.261-11.481 14.425-15.839 6.164-4.357 13.457-7.717 21.883-10.105 8.425-2.379 17.608-3.555 27.555-3.555 9.779 0 18.78 1.347 26.999 3.974 8.219 2.629 15.29 6.431 21.206 11.279 5.918 4.855 10.543 10.831 13.871 17.692 3.328 6.867 4.992 14.241 4.992 23.241h-43.151c0-4-.514-6.716-1.541-9.553s-2.589-5.508-4.685-7.522-4.684-3.595-7.768-4.743c-3.082-1.156-6.718-1.729-10.909-1.729-4.111 0-7.727.478-10.851 1.417-3.124.947-5.732 2.263-7.827 3.948-2.097 1.685-3.68 3.616-4.747 5.794a15.594 15.594 0 0 0-1.604 6.967c0 2.711.761 5.155 2.282 7.334zM379 101h-77v41h70v33h-70v72h-43V67h120v34zm69 26v14c0 2.762-2.641 5-5.402 5H442v18h-6v4h3v16h-7v4h3v39h-8v19h-.428l-3.988 4.49-4.012-4.49H419v-19h-8v-39h3v-4h-7v-16h3v-4h-6v-18h-1.402c-2.762 0-4.598-2.238-4.598-5v-20c0-2.762 1.836-5 4.598-5H404v-10c0-1.104.493-2 1.598-2h2.704c.699 0 1.266-.655 1.266-1.5s-.566-1.5-1.266-1.5H404.929c-.146 0-.285-.035-.416-.088l-.02-.007c-.483-.207-.83-.745-.83-1.405 0-.289.07-.553.185-.777.005-.009.007-.018.012-.025a1.383 1.383 0 0 1 .622-.599l.051-.019c.125-.048.257-.08.396-.08H408.1c.701 0 1.266-.657 1.266-1.5 0-.845-.564-1.5-1.266-1.5h-3.17c-.699 0-1.266-.654-1.266-1.5s.566-1.5 1.266-1.5H408.096c.699 0 1.267-.655 1.267-1.5s-.567-1.5-1.267-1.5H404.928l-.012-.002a1.12 1.12 0 0 1-.369-.076c-.027-.01-.055-.017-.08-.029a1.206 1.206 0 0 1-.29-.194 1.556 1.556 0 0 1-.093-.089 1.556 1.556 0 0 1-.205-.279c-.024-.045-.043-.093-.063-.141a1.738 1.738 0 0 1-.091-.275c-.009-.037-.028-.068-.035-.107-.018-.098-.025-.201-.025-.307s.008-.209.025-.307c.007-.039.026-.07.035-.107.023-.097.053-.188.091-.275.021-.048.039-.096.063-.141a1.521 1.521 0 0 1 .298-.368c.089-.079.185-.146.29-.194.026-.013.053-.02.08-.029a1.12 1.12 0 0 1 .369-.076l.012-.002h3.375c.699 0 1.266-.655 1.266-1.5 0-.03-.006-.059-.007-.088a1.733 1.733 0 0 0-.049-.336c-.012-.045-.021-.09-.035-.133a1.581 1.581 0 0 0-.22-.424 1.358 1.358 0 0 0-.266-.279c-.008-.006-.017-.01-.024-.016a1.177 1.177 0 0 0-.665-.225h-2.704c-1.104 0-1.598-.896-1.598-2V70.025c0-.23-.166-.459-.115-.673.033-.371-.023-.704.191-.94.53-.837 1.459-1.412 2.525-1.412H433v-4a1 1 0 1 1 2 0v4h3.591c1.662 0 3.409 1.371 3.409 3.025v2.297c0 .066.015.131.015.199s-.015.133-.015.2V78c0 1.104-1.298 2-2.402 2h-2.623c-.089 0-.175.015-.256.034-.578.137-1.017.73-1.017 1.468 0 .739.438 1.333 1.017 1.471.081.02.167.027.256.027H440.352c.523 0 .974.368 1.164.908.064.181.1.381.1.592s-.035.411-.1.592c-.19.54-.641.908-1.164.908H436.978c-.088 0-.174.01-.255.029a1.131 1.131 0 0 0-.407.19c-.362.26-.605.729-.605 1.281s.243 1.021.605 1.281l.016.01a1.066 1.066 0 0 0 .646.209h3.371c.03 0 .059.008.088.01.657.055 1.177.682 1.177 1.49s-.52 1.436-1.177 1.49c-.029.002-.058.01-.088.01h-3.165c-.699 0-1.265.655-1.265 1.5s.565 1.5 1.265 1.5H440.351c.697 0 1.264.654 1.264 1.5s-.566 1.5-1.264 1.5h-3.373c-.125 0-.243.027-.356.066a1.036 1.036 0 0 0-.206.094 1.164 1.164 0 0 0-.347.293 1.255 1.255 0 0 0-.127.182c-.027.045-.048.094-.07.143a1.591 1.591 0 0 0-.145.549c-.006.058-.015.113-.015.174 0 .033.006.063.008.096.008.115.022.228.05.334.01.038.018.076.029.113a1.597 1.597 0 0 0 .209.416c.182.252.43.432.713.5.079.019.162.042.249.042H440.356c.035 0 .068.015.103.018.093.009.188.017.274.048.073.026.145.071.211.112.042.025.104.041.144.071.06.046.137.108.188.166.037.041.142.073.173.119.053.075.213.165.253.252.018.038.303.071.303.111v.003c0 .003-.241.005-.24.008.064.181-.146.381-.146.592s-.035.411-.1.592c-.19.54-.641.908-1.164.908H436.981c-.088 0-.174.01-.255.029-.577.138-1.012.731-1.012 1.471s.435 1.333 1.012 1.471c.081.02.167.029.255.029h2.62c1.104 0 2.402.896 2.402 2v5.301c0 .066.017.131.017.199s-.02.131-.02.197V116h.598c2.762 0 5.402 2.238 5.402 5v6z"/><path fill="#FFDE00" d="M270 0C120.883 0 0 69.843 0 156c0 86.156 120.883 156 270 156 149.117 0 270-69.844 270-156C540 69.843 419.117 0 270 0zM144.428 121.914c1.519 2.175 3.698 4.23 6.535 6.164 2.835 1.93 6.287 3.74 10.355 5.426 4.069 1.686 8.65 3.346 13.747 4.992 9.533 3.041 18.04 6.408 25.52 10.107 7.479 3.697 13.787 7.93 18.926 12.697 5.135 4.768 9.039 10.154 11.711 16.152 2.672 6 4.008 12.781 4.008 20.342 0 8.059-1.584 15.226-4.748 21.515s-7.643 11.569-13.437 15.845c-5.795 4.273-12.781 7.521-20.96 9.74-8.178 2.219-17.279 3.329-27.309 3.329-6.163 0-12.287-.507-18.369-1.534-6.083-1.023-11.896-2.594-17.444-4.729-5.547-2.139-10.727-4.801-15.534-8.051-4.81-3.246-8.96-7.072-12.452-11.596-3.496-4.518-6.249-9.545-8.261-15.299C94.701 201.26 93.694 195 93.694 188h43.398c0 5 .698 9.461 2.097 13.035 1.396 3.576 3.451 6.254 6.164 8.473 2.712 2.219 6.019 3.801 9.924 4.744 3.902.947 8.403 1.422 13.499 1.422 4.109 0 7.623-.475 10.543-1.422 2.915-.943 5.32-2.219 7.211-3.82s3.269-3.471 4.131-5.609c.863-2.137 1.295-4.395 1.295-6.781 0-2.795-.392-5.318-1.172-7.582-.783-2.258-2.324-4.395-4.623-6.412-2.301-2.01-5.528-4.004-9.678-5.98-4.151-1.971-9.597-4.064-16.336-6.283a244.113 244.113 0 0 1-22.808-8.877c-7.315-3.287-13.808-7.191-19.479-11.713-5.672-4.52-10.214-9.8-13.624-15.843-3.411-6.043-5.117-13.089-5.117-21.144 0-7.725 1.726-14.689 5.179-20.894 3.452-6.204 8.261-11.481 14.425-15.839 6.164-4.357 13.457-7.717 21.883-10.105 8.425-2.379 17.608-3.555 27.555-3.555 9.779 0 18.78 1.347 26.999 3.974 8.219 2.629 15.29 6.431 21.206 11.279 5.918 4.855 10.543 10.831 13.871 17.692 3.328 6.867 4.992 14.241 4.992 23.241h-43.151c0-4-.514-6.716-1.541-9.553s-2.589-5.508-4.685-7.522-4.684-3.595-7.768-4.743c-3.082-1.156-6.718-1.729-10.909-1.729-4.111 0-7.727.478-10.851 1.417-3.124.947-5.732 2.263-7.827 3.948-2.097 1.685-3.68 3.616-4.747 5.794a15.594 15.594 0 0 0-1.604 6.967c0 2.711.761 5.155 2.282 7.334zM378 100h-77v41h70v33h-70v72h-43V66h120v34zm69 26v14c0 2.762-2.641 5-5.402 5H441v18h-6v4h3v16h-7v4h3v39h-8v19h-.428l-3.988 4.49-4.012-4.49H418v-19h-8v-39h3v-4h-7v-16h3v-4h-6v-18h-1.402c-2.762 0-4.598-2.238-4.598-5v-20c0-2.762 1.836-5 4.598-5H403v-10c0-1.104.493-2 1.598-2h2.704c.699 0 1.266-.655 1.266-1.5s-.566-1.5-1.266-1.5H403.929c-.146 0-.285-.035-.416-.088l-.02-.007c-.483-.207-.83-.745-.83-1.405 0-.289.07-.553.185-.777.005-.009.007-.018.012-.025a1.383 1.383 0 0 1 .622-.599l.051-.019c.125-.048.257-.08.396-.08H407.1c.701 0 1.266-.657 1.266-1.5 0-.845-.564-1.5-1.266-1.5h-3.17c-.699 0-1.266-.654-1.266-1.5s.566-1.5 1.266-1.5H407.096c.699 0 1.267-.655 1.267-1.5s-.567-1.5-1.267-1.5H403.928l-.012-.002a1.12 1.12 0 0 1-.369-.076c-.027-.01-.055-.017-.08-.029a1.206 1.206 0 0 1-.29-.194 1.556 1.556 0 0 1-.093-.089 1.556 1.556 0 0 1-.205-.279c-.024-.045-.043-.093-.063-.141a1.738 1.738 0 0 1-.091-.275c-.009-.037-.028-.068-.035-.107-.018-.098-.025-.201-.025-.307s.008-.209.025-.307c.007-.039.026-.07.035-.107.023-.097.053-.188.091-.275.021-.048.039-.096.063-.141a1.521 1.521 0 0 1 .298-.368c.089-.079.185-.146.29-.194.026-.013.053-.02.08-.029a1.12 1.12 0 0 1 .369-.076l.012-.002h3.375c.699 0 1.266-.655 1.266-1.5 0-.03-.006-.059-.007-.088a1.733 1.733 0 0 0-.049-.336c-.012-.045-.021-.09-.035-.133a1.581 1.581 0 0 0-.22-.424 1.358 1.358 0 0 0-.266-.279c-.008-.006-.017-.01-.024-.016a1.177 1.177 0 0 0-.665-.225h-2.704c-1.104 0-1.598-.896-1.598-2V69.025c0-.23-.166-.459-.115-.673.033-.371-.023-.704.191-.94.53-.837 1.459-1.412 2.525-1.412H432v-4a1 1 0 1 1 2 0v4h3.591c1.662 0 3.409 1.371 3.409 3.025v2.297c0 .066.015.131.015.199s-.015.133-.015.2V77c0 1.104-1.298 2-2.402 2h-2.623c-.089 0-.175.015-.256.034-.578.137-1.017.73-1.017 1.468 0 .739.438 1.333 1.017 1.471.081.02.167.027.256.027H439.352c.523 0 .974.368 1.164.908.064.181.1.381.1.592s-.035.411-.1.592c-.19.54-.641.908-1.164.908H435.978c-.088 0-.174.01-.255.029a1.131 1.131 0 0 0-.407.19c-.362.26-.605.729-.605 1.281s.243 1.021.605 1.281l.016.01a1.066 1.066 0 0 0 .646.209h3.371c.03 0 .059.008.088.01.657.055 1.177.682 1.177 1.49s-.52 1.436-1.177 1.49c-.029.002-.058.01-.088.01h-3.165c-.699 0-1.265.655-1.265 1.5s.565 1.5 1.265 1.5H439.351c.697 0 1.264.654 1.264 1.5s-.566 1.5-1.264 1.5h-3.373c-.125 0-.243.027-.356.066a1.036 1.036 0 0 0-.206.094 1.164 1.164 0 0 0-.347.293 1.255 1.255 0 0 0-.127.182c-.027.045-.048.094-.07.143a1.591 1.591 0 0 0-.145.549c-.006.058-.015.113-.015.174 0 .033.006.063.008.096.008.115.022.228.05.334.01.038.018.076.029.113a1.597 1.597 0 0 0 .209.416c.182.252.43.432.713.5.079.019.162.042.249.042H439.356c.035 0 .068.015.103.018.093.009.188.017.274.048.073.026.145.071.211.112.042.025.104.041.144.071.06.046.137.108.188.166.037.041.142.073.173.119.053.075.213.165.253.252.018.038.303.071.303.111v.003c0 .003-.241.005-.24.008.064.181-.146.381-.146.592s-.035.411-.1.592c-.19.54-.641.908-1.164.908H435.981c-.088 0-.174.01-.255.029-.577.138-1.012.731-1.012 1.471s.435 1.333 1.012 1.471c.081.02.167.029.255.029h2.62c1.104 0 2.402.896 2.402 2v5.301c0 .066.017.131.017.199s-.02.131-.02.197V115h.598c2.762 0 5.402 2.238 5.402 5v6z"/></svg>