<?xml version="1.0" encoding="utf-8"?>
<!-- Generator: Adobe Illustrator 16.0.0, SVG Export Plug-In . SVG Version: 6.00 Build 0)  -->
<!DOCTYPE svg PUBLIC "-//W3C//DTD SVG 1.1//EN" "http://www.w3.org/Graphics/SVG/1.1/DTD/svg11.dtd">
<svg version="1.1" id="Layer_1" xmlns="http://www.w3.org/2000/svg" xmlns:xlink="http://www.w3.org/1999/xlink" x="0px" y="0px"
	 width="538.6px" height="311.2px" viewBox="0 0 538.6 311.2" enable-background="new 0 0 538.6 311.2" xml:space="preserve">
<g>
	<path fill="#B71C1C" d="M430.3,82.1h-0.1C430.2,82.1,430.2,82.1,430.3,82.1L430.3,82.1z"/>
	<path fill="#B71C1C" d="M269.3,0C120.6,0,0,69.7,0,155.6s120.6,155.6,269.3,155.6s269.3-69.7,269.3-155.6S418,0,269.3,0z
		 M226.5,200.1c-0.3,6.8-1.9,13-4.7,18.5c-3.2,6.3-7.6,11.5-13.4,15.8c-5.8,4.3-12.7,7.5-20.9,9.7c-8.2,2.2-17.2,3.3-27.2,3.3
		c-6.1,0-12.3-0.5-18.3-1.5c-6.1-1-11.9-2.6-17.4-4.7c-5.5-2.1-10.7-4.8-15.5-8c-4.8-3.2-8.9-7.1-12.4-11.6
		c-3.5-4.5-6.2-9.6-8.2-15.3c-2-5.7-3-12.3-3-18.9c0-0.1,0-0.3,0-0.3h43.3c0,1,0,1.9,0.1,2.7c0.1,2.5,0.4,4.8,0.9,6.8
		c0.3,1.3,0.7,2.5,1.1,3.7c1.4,3.6,3.4,6.3,6.1,8.6c2.7,2.2,6,3.8,9.9,4.7c3.9,0.9,8.4,1.4,13.5,1.4c4.1,0,7.6-0.5,10.5-1.4
		c2.9-0.9,5.3-2.2,7.2-3.8c1.9-1.6,3.3-3.5,4.1-5.6c0.9-2.1,1.3-4.4,1.3-6.8c0-2.8-0.4-5.3-1.2-7.6c-0.8-2.3-2.3-4.4-4.6-6.4
		c-2.3-2-5.5-4-9.7-6c-4.1-2-9.6-4.1-16.3-6.3c-7.7-2.6-15.3-5.5-22.7-8.9c-7.3-3.3-13.8-7.2-19.4-11.7c-0.7-0.6-1.4-1.1-2.1-1.7
		c-4.7-4.1-8.5-8.8-11.5-14.1c-3.4-6-5.1-13.1-5.1-21.1v0c0-7.7,1.7-14.7,5.2-20.8c3.4-6.2,8.2-11.5,14.4-15.8
		c6.1-4.3,13.4-7.7,21.8-10.1c8.4-2.4,17.6-3.6,27.5-3.6c9.8,0,18.7,1.3,26.9,3.9c8.2,2.6,15.3,6.4,21.2,11.2
		c5.9,4.8,10.5,10.7,13.8,17.5c3.3,6.8,5,13.9,5,22.9h0h-43c0,0,0,0,0-0.1c0-2.3-0.3-4.4-0.8-6.5c-0.2-0.9-0.5-1.8-0.8-2.6
		c-1-2.8-2.6-5.4-4.7-7.4c-2.1-2-4.7-3.6-7.7-4.7c-3.1-1.2-6.7-1.7-10.9-1.7c-4.1,0-7.7,0.5-10.8,1.4c-3.1,0.9-5.7,2.3-7.8,3.9
		c-2.1,1.7-3.7,3.6-4.7,5.8c-1.1,2.2-1.6,4.5-1.6,6.9c0,2.7,0.8,5.1,2.3,7.3c1.5,2.2,3.7,4.2,6.5,6.1c2.8,1.9,6.3,3.7,10.3,5.4
		c4.1,1.7,8.6,3.3,13.7,5c9.5,3,18,6.4,25.5,10.1c7.5,3.7,13.8,7.9,18.9,12.7c5.1,4.8,9,10.1,11.7,16.1c2.7,6,4,12.7,4,20.3
		C226.6,198.2,226.6,199.2,226.5,200.1z M368.3,99.1h-76v41h70v0.4v32.9v0.6h-70v71h-43v-179h119V99.1z M437.3,126.3v1v6v1v6
		c0,2.8-2.2,4.7-5,4.7h-1v18h-6v4h3v16h-7v4h3v39h-8v19h0l-4,4.5l-4-4.5h0v-19h-8v-39h3v-4h-7v-16h3v-4h-6v-18h-1c-2.8,0-5-2-5-4.7
		v-6v-1v-6v-1v-6c0-2.8,2.2-5.3,5-5.3h1v-1.7v-2v-2v-4c0-1.1,0.9-2.3,2-2.3h1.7h1c0.7,0,1.3-0.7,1.3-1.5s-0.6-1.5-1.3-1.5h-1.7h0h0
		h-1.7h0h0c-0.1,0-0.3,0.1-0.4,0c0,0,0,0.1,0,0.1c-0.5-0.2-0.8-0.7-0.8-1.4c0-0.3,0.1-0.6,0.2-0.8c0,0,0,0,0,0
		c0.1-0.1,0.2-0.2,0.2-0.3c0,0,0,0,0-0.1c0.1-0.1,0.2-0.2,0.3-0.2c0,0,0-0.1,0.1-0.1c0.1,0,0.3-0.2,0.4-0.2h0h0h1.7h0h0h1.5
		c0.7,0,1.3-0.7,1.3-1.5c0-0.8-0.6-1.5-1.3-1.5h-1.3h0h-0.2h0h-1.5h0h-0.2h0c-0.7,0-1.3-0.7-1.3-1.5s0.6-1.5,1.3-1.5h0h0.2h0h1.5h0
		h0.2h0h1.3c0.7,0,1.3-0.7,1.3-1.5s-0.6-1.5-1.3-1.5h-1.5h0h0h-1.7h0h0c0,0,0,0.1,0,0.1c-0.1,0-0.3,0.1-0.4,0.1c0,0-0.1,0-0.1,0
		c-0.1,0-0.2-0.1-0.3-0.2c0,0-0.1-0.1-0.1-0.1c-0.1-0.1-0.1-0.2-0.2-0.3c0,0,0-0.1-0.1-0.1c0-0.1-0.1-0.2-0.1-0.3c0,0,0-0.1,0-0.1
		c0-0.1,0-0.2,0-0.3s0-0.2,0-0.3c0,0,0-0.1,0-0.1c0-0.1,0.1-0.2,0.1-0.3c0,0,0-0.1,0.1-0.1c0.1-0.1,0.1-0.2,0.2-0.3
		c0,0,0.1-0.1,0.1-0.1c0.1-0.1,0.2-0.2,0.3-0.2c0,0,0.1-0.1,0.1-0.1c0.1,0,0.2-0.1,0.4-0.1c0,0,0-0.1,0-0.1h0h0h1.7h0h0h0h1.7
		c0.7,0,1.3-0.5,1.3-1.3c0,0,0,0,0,0c0-0.1,0-0.2-0.1-0.3c0,0,0-0.1,0-0.1c0-0.1-0.1-0.2-0.2-0.3c0,0,0-0.1-0.1-0.1
		c-0.1-0.1-0.2-0.2-0.3-0.3c0,0,0,0,0,0c-0.1-0.1-0.2-0.2-0.4-0.2c-0.1,0-0.2-0.2-0.3-0.2h-2.7c-1.1,0-2-0.6-2-1.7v-3v-3v0v-2v-3
		c0-0.2,0-0.5,0.1-0.7c0-0.4,0.2-0.8,0.4-1c0.5-0.8,1.5-1.5,2.5-1.5h26v-3.7c0-0.6,0.4-1,1-1s1,0.4,1,1v3.7h4c1.7,0,3,1.6,3,3.3v2
		v0.3c0,0.1,0,0.1,0,0.2s0,0.1,0,0.2v0.3v2v3c0,1.1-0.9,1.7-2,1.7h-2h-0.6c-0.1,0-0.2,0.1-0.3,0.1c-0.6,0.1-1,0.8-1,1.6
		c0,0.7,0.4,1.3,1,1.4c0.1,0,0.2-0.1,0.3-0.1h0h1.7h0h0h0h1.8h0.1v0c0.5,0.1,0.8,0.5,0.9,1c0.1,0.2,0.1,0.5,0.1,0.7s0,0.4,0,0.6
		c-0.2,0.5-1,0.9-1,0.9v0v-0.1v-0.1h-1.9h0h0h0h-1.7c-0.1,0-0.2,0.1-0.3,0.2c-0.1,0-0.3,0.2-0.4,0.3c0,0,0,0,0,0
		c-0.4,0.3-0.6,0.7-0.6,1.3s0.2,1,0.6,1.3c0,0,0,0,0,0c0.1,0.1,0.3,0.1,0.4,0.1c0.1,0,0.2-0.1,0.3-0.1h1.5h0.2h0h1.5h0.5v0.1
		c0,0,0,0.1,0,0.1c0.7,0.1,1.1,0.7,1.1,1.5s-0.5,1.4-1.1,1.5c0,0,0-0.1,0-0.1v-0.1h-0.5h-1.5h0h-0.2h-1.3c-0.7,0-1.3,0.7-1.3,1.5
		s0.6,1.5,1.3,1.5h1.3h0.2h0h1.5h0.2h0c0.7,0,1.3,0.7,1.3,1.5s-0.6,1.5-1.3,1.5h0h-0.2h-1.5h0h-0.2h-1.5c-0.1,0-0.2,0.2-0.4,0.2
		c-0.1,0-0.1,0.2-0.2,0.2c-0.1,0-0.1,0.1-0.2,0.1c-0.1,0.1-0.1,0.1-0.2,0.2c0,0.1-0.1,0.1-0.1,0.2c0,0,0,0.1-0.1,0.1
		c0,0.1-0.1,0.2-0.1,0.3c0,0.1,0,0.1,0,0.2c0,0.1,0,0.1,0,0.2c0,0,0,0.1,0,0.1c0,0.1,0,0.2,0,0.3c0,0,0,0.1,0,0.1
		c0,0.1,0.1,0.3,0.2,0.4c0,0,0,0,0,0c0.2,0.3,0.4,0.4,0.7,0.4c0.1,0,0.2-0.1,0.2-0.1c0,0,0,0,0,0h1.7h0h0h0h1.8h0.1v0.1v-0.1h-0.1
		c0,0-0.1,0.1,0,0.1c0.1,0,0.2,0.1,0.3,0.2c0.1,0,0.1,0.1,0.2,0.1c0,0,0.1,0,0.1,0.1c0.1,0,0.1,0.1,0.2,0.2c0,0,0.1,0.1,0.1,0.1
		c0.1,0.1,0.1,0.2,0.2,0.3c0,0,0.1,0.1,0.1,0.1v0c0,0,0,0,0,0c0.1,0.2,0.1,0.4,0.1,0.6s0,0.4,0,0.6c-0.2,0.5-1,0.9-1,0.9v0v-0.1
		v-0.1h-1.9h0h0h0h-1.7c-0.1,0-0.2,0.1-0.3,0.1c-0.6,0.1-1,0.8-1,1.6s0.4,1.3,1,1.4c0.1,0,0.2-0.1,0.3-0.1h1.5h0.1h1
		c1.1,0,2,1.2,2,2.3v3v2v0.3c0,0.1,0,0.1,0,0.2s0,0.1,0,0.2v1h1c2.8,0,5,2.5,5,5.3V126.3z"/>
	<polyline fill="none" stroke="#FFFFFF" stroke-width="0" stroke-linecap="round" stroke-linejoin="round" points="430.3,82.1 
		430.3,82.1 430.2,82.1 	"/>
	<polyline fill="none" stroke="#FFFFFF" stroke-width="0" stroke-linecap="round" stroke-linejoin="round" points="430.3,100.2 
		430.3,100.1 430.2,100.1 	"/>
	<path fill="#FFFFFF" d="M432.3,115.1h-1v-1c0-0.1,0-0.1,0-0.2s0-0.1,0-0.2v-0.3v-2v-3c0-1.1-0.9-2.3-2-2.3h-1h-0.1h-1.5
		c-0.1,0-0.2,0.1-0.3,0.1c-0.6-0.1-1-0.7-1-1.4s0.4-1.4,1-1.6c0.1,0,0.2-0.1,0.3-0.1h1.7h0h0h0h1.9v0.1v0.1v0c0,0,0.8-0.4,1-0.9
		c0.1-0.2,0-0.4,0-0.6s0-0.4-0.1-0.6c0,0,0,0,0,0v0c0,0-0.1-0.1-0.1-0.1c0-0.1-0.1-0.2-0.2-0.3c0,0-0.1-0.1-0.1-0.1
		c-0.1-0.1-0.1-0.1-0.2-0.2c0,0-0.1,0-0.1-0.1c-0.1,0-0.1-0.1-0.2-0.1c-0.1,0-0.2-0.2-0.3-0.2c0,0,0.1-0.1,0-0.1h-1.8h0h0h0h-1.7
		c0,0,0,0,0,0c-0.1,0-0.2,0.1-0.2,0.1c-0.3-0.1-0.5-0.2-0.7-0.4c0,0,0,0,0,0c-0.1-0.1-0.1-0.2-0.2-0.4c0,0,0-0.1,0-0.1
		c0-0.1,0-0.2,0-0.3c0,0,0-0.1,0-0.1c0-0.1,0-0.1,0-0.2c0-0.1,0-0.1,0-0.2c0-0.1,0.1-0.2,0.1-0.3c0,0,0-0.1,0.1-0.1
		c0-0.1,0.1-0.1,0.1-0.2c0.1-0.1,0.1-0.1,0.2-0.2c0.1,0,0.1-0.1,0.2-0.1c0.1,0,0.1-0.2,0.2-0.2c0.1,0,0.2-0.2,0.4-0.2h1.5h0.2h0h1.5
		h0.2h0c0.7,0,1.3-0.7,1.3-1.5s-0.6-1.5-1.3-1.5h0h-0.2h-1.5h0h-0.2h-1.3c-0.7,0-1.3-0.7-1.3-1.5s0.6-1.5,1.3-1.5h1.3h0.2h0h1.5h0.5
		v0.1c0,0-0.1,0.1,0,0.1c0.7-0.1,1.1-0.6,1.1-1.5s-0.4-1.4-1.1-1.5c0,0,0-0.1,0-0.1v-0.1h-0.5h-1.5h0h-0.2h-1.5
		c-0.1,0-0.2,0.1-0.3,0.1c-0.1,0-0.3,0-0.4-0.1c0,0,0,0,0,0c-0.4-0.3-0.6-0.7-0.6-1.3s0.2-1,0.6-1.3c0,0,0,0,0,0
		c0.1-0.1,0.3-0.3,0.4-0.3c0.1,0,0.2-0.2,0.3-0.2h1.7h0h0h0h1.9v0.1v0.1v0c0,0,0.8-0.4,1-0.9c0.1-0.2,0-0.4,0-0.6s-0.1-0.5-0.1-0.7
		c-0.2-0.5-0.5-0.9-0.9-1c0,0-0.1,0-0.1,0h-1.8h0h0h0h-1.7h0c-0.1,0-0.2,0.1-0.3,0.1c-0.6-0.1-1-0.7-1-1.4c0-0.7,0.4-1.4,1-1.6
		c0.1,0,0.2-0.1,0.3-0.1h0.6h2c1.1,0,2-0.6,2-1.7v-3v-2v-0.3c0-0.1,0-0.1,0-0.2s0-0.1,0-0.2v-0.3v-2c0-1.7-1.3-3.3-3-3.3h-4v-3.7
		c0-0.6-0.4-1-1-1s-1,0.4-1,1v3.7h-26c-1.1,0-2,0.7-2.5,1.5c-0.2,0.2-0.4,0.6-0.4,1c-0.1,0.2-0.1,0.5-0.1,0.7v3v2v0v3v3
		c0,1.1,0.9,1.7,2,1.7h2.7c0.1,0,0.2,0.1,0.3,0.2c0.1,0,0.2,0.2,0.4,0.2c0,0,0,0,0,0c0.1,0.1,0.2,0.2,0.3,0.3c0,0,0,0.1,0.1,0.1
		c0.1,0.1,0.1,0.2,0.2,0.3c0,0,0,0.1,0.1,0.1c0,0.1,0.1,0.2,0.1,0.3c0,0,0,0,0,0c0,0.8-0.6,1.3-1.3,1.3h-1.7h0h0h0h-1.7h0h0
		c0,0,0,0.1,0,0.1c-0.1,0-0.3,0.1-0.4,0.1c0,0-0.1,0-0.1,0.1c-0.1,0-0.2,0.1-0.3,0.2c0,0-0.1,0.1-0.1,0.1c-0.1,0.1-0.1,0.2-0.2,0.3
		c0,0,0,0.1-0.1,0.1c0,0.1-0.1,0.2-0.1,0.3c0,0,0,0.1,0,0.1c0,0.1,0,0.2,0,0.3s0,0.2,0,0.3c0,0,0,0.1,0,0.1c0,0.1,0.1,0.2,0.1,0.3
		c0,0,0,0.1,0.1,0.1c0.1,0.1,0.1,0.2,0.2,0.3c0,0,0.1,0.1,0.1,0.1c0.1,0.1,0.2,0.1,0.3,0.2c0,0,0.1,0,0.1,0c0.1,0,0.2-0.1,0.4-0.1
		c0,0,0-0.1,0-0.1h0h0h1.7h0h0h1.5c0.7,0,1.3,0.7,1.3,1.5s-0.6,1.5-1.3,1.5h-1.3h0h-0.2h0h-1.5h0h-0.2h0c-0.7,0-1.3,0.7-1.3,1.5
		s0.6,1.5,1.3,1.5h0h0.2h0h1.5h0h0.2h0h1.3c0.7,0,1.3,0.7,1.3,1.5c0,0.8-0.6,1.5-1.3,1.5h-1.5h0h0h-1.7h0h0c-0.1,0-0.3,0.2-0.4,0.2
		c0,0,0,0.1-0.1,0.1c-0.1,0.1-0.2,0.2-0.3,0.2c0,0,0,0,0,0.1c-0.1,0.1-0.2,0.2-0.2,0.3c0,0,0,0,0,0c-0.1,0.2-0.2,0.5-0.2,0.8
		c0,0.7,0.3,1.2,0.8,1.4c0,0,0-0.1,0-0.1c0.1,0.1,0.3,0,0.4,0h0h0h1.7h0h0h1.7c0.7,0,1.3,0.7,1.3,1.5s-0.6,1.5-1.3,1.5h-1h-1.7
		c-1.1,0-2,1.2-2,2.3v4v2v2v1.7h-1c-2.8,0-5,2.5-5,5.3v6v1v6v1v6c0,2.8,2.2,4.7,5,4.7h1v18h6v4h-3v16h7v4h-3v39h8v19h0l4,4.5l4-4.5
		h0v-19h8v-39h-3v-4h7v-16h-3v-4h6v-18h1c2.8,0,5-2,5-4.7v-6v-1v-6v-1v-6C437.3,117.6,435,115.1,432.3,115.1z"/>
	<path fill="#FFFFFF" d="M210.9,160.8c-5.1-4.8-11.4-9-18.9-12.7c-7.5-3.7-15.9-7-25.5-10.1c-5.1-1.6-9.7-3.3-13.7-5
		c-4.1-1.7-7.5-3.5-10.3-5.4c-2.8-1.9-5-4-6.5-6.1c-1.5-2.2-2.3-4.6-2.3-7.3c0-2.4,0.5-4.8,1.6-6.9c1.1-2.2,2.6-4.1,4.7-5.8
		c2.1-1.7,4.7-3,7.8-3.9c3.1-0.9,6.7-1.4,10.8-1.4c4.2,0,7.8,0.6,10.9,1.7c3.1,1.1,5.7,2.7,7.7,4.7c2.1,2,3.6,4.5,4.7,7.4
		c0.3,0.8,0.5,1.7,0.8,2.6c0.5,2.1,0.8,4.2,0.8,6.5c0,0.1,0,0.1,0,0.1h43h0c0-9-1.7-16.1-5-22.9c-3.3-6.8-7.9-12.7-13.8-17.5
		c-5.9-4.8-13-8.6-21.2-11.2c-8.2-2.6-17.2-3.9-26.9-3.9c-9.9,0-19.1,1.2-27.5,3.6c-8.4,2.4-15.7,5.7-21.8,10.1
		C104.3,81.5,99.5,86.8,96,93c-3.4,6.2-5.2,13.1-5.2,20.8v0c0,8,1.7,15.1,5.1,21.1c3,5.3,6.8,10,11.5,14.1c0.7,0.6,1.4,1.2,2.1,1.7
		c5.7,4.5,12.1,8.4,19.4,11.7c7.4,3.3,15,6.3,22.7,8.9c6.7,2.2,12.2,4.3,16.3,6.3c4.1,2,7.4,4,9.7,6c2.3,2,3.8,4.1,4.6,6.4
		c0.8,2.3,1.2,4.8,1.2,7.6c0,2.4-0.4,4.6-1.3,6.8c-0.9,2.1-2.2,4-4.1,5.6c-1.9,1.6-4.3,2.9-7.2,3.8c-2.9,0.9-6.4,1.4-10.5,1.4
		c-5.1,0-9.6-0.5-13.5-1.4c-3.9-0.9-7.2-2.5-9.9-4.7c-2.7-2.2-4.8-5-6.1-8.6c-0.5-1.2-0.8-2.4-1.1-3.7c-0.5-2-0.8-4.2-0.9-6.8
		c0-0.9-0.1-1.7-0.1-2.7H85.4c0,0,0,0.2,0,0.3c0,6.6,1,13.2,3,18.9c2,5.7,4.8,10.8,8.2,15.3c3.5,4.5,7.6,8.4,12.4,11.6
		c4.8,3.2,10,5.9,15.5,8c5.5,2.1,11.3,3.7,17.4,4.7c6.1,1,12.2,1.5,18.3,1.5c10,0,19.1-1.1,27.2-3.3c8.2-2.2,15.1-5.5,20.9-9.7
		c5.8-4.3,10.2-9.5,13.4-15.8c2.8-5.5,4.3-11.6,4.7-18.5c0-1,0.1-2,0.1-3c0-7.5-1.3-14.3-4-20.3
		C219.9,170.9,216.1,165.5,210.9,160.8z"/>
	<polygon fill="#FFFFFF" points="249.3,245.1 292.3,245.1 292.3,174.1 362.3,174.1 362.3,173.4 362.3,140.5 362.3,140.1 
		292.3,140.1 292.3,99.1 368.3,99.1 368.3,66.1 249.3,66.1 	"/>
</g>
</svg>
