<?xml version="1.0" encoding="utf-8"?>
<!-- Generator: Adobe Illustrator 16.0.0, SVG Export Plug-In . SVG Version: 6.00 Build 0)  -->
<!DOCTYPE svg PUBLIC "-//W3C//DTD SVG 1.1//EN" "http://www.w3.org/Graphics/SVG/1.1/DTD/svg11.dtd">
<svg version="1.1" id="Layer_1" xmlns="http://www.w3.org/2000/svg" xmlns:xlink="http://www.w3.org/1999/xlink" x="0px" y="0px"
	 width="541px" height="313px" viewBox="0 0 541 313" enable-background="new 0 0 541 313" xml:space="preserve">
<rect fill="#E0E0E0" width="541" height="313"/>
<g>
	<path fill="#B71C1C" d="M270.5,16.678c-133.653,0-242,62.6-242,139.822c0,77.221,108.347,139.822,242,139.822
		c133.652,0,242-62.602,242-139.822C512.5,79.277,404.152,16.678,270.5,16.678z M235.08,213.244
		c-2.836,5.637-6.851,10.368-12.044,14.201c-5.193,3.829-11.455,6.741-18.786,8.73c-7.329,1.988-15.487,2.982-24.477,2.982
		c-5.523,0-11.013-0.454-16.463-1.373c-5.452-0.918-10.663-2.326-15.636-4.239c-4.972-1.919-9.615-4.303-13.922-7.217
		c-4.311-2.908-8.032-6.338-11.161-10.394c-3.134-4.049-5.601-8.555-7.404-13.713c-1.806-5.156-2.709-10.768-2.709-17.041h38.898
		c0,4.48,0.626,8.48,1.879,11.684c1.251,3.205,3.094,5.605,5.525,7.594c2.431,1.988,5.394,3.406,8.895,4.252
		c3.497,0.85,7.531,1.275,12.099,1.275c3.683,0,6.833-0.426,9.45-1.275c2.612-0.846,4.769-1.988,6.463-3.424
		c1.695-1.435,2.93-3.111,3.703-5.026c0.774-1.917,1.161-3.94,1.161-6.078c0-2.506-0.352-4.767-1.051-6.797
		c-0.702-2.023-2.083-3.938-4.144-5.746c-2.063-1.802-4.955-3.59-8.674-5.36c-3.72-1.766-8.602-3.643-14.642-5.631
		c-6.943-2.309-13.766-4.965-20.443-7.957c-6.557-2.945-12.376-6.445-17.459-10.499c-5.084-4.051-9.154-8.783-12.211-14.199
		c-3.057-5.417-4.586-11.731-4.586-18.952c0-6.924,1.547-13.166,4.642-18.727c3.095-5.561,7.405-10.291,12.929-14.196
		c5.525-3.906,12.062-6.917,19.614-9.057c7.551-2.133,15.782-3.187,24.697-3.187c8.765,0,16.832,1.208,24.199,3.562
		c7.367,2.356,13.705,5.764,19.007,10.11c5.304,4.351,9.45,9.707,12.433,15.857c2.982,6.155,4.474,12.765,4.474,20.831h-38.675
		c0-3.585-0.461-6.02-1.382-8.563c-0.921-2.542-2.321-4.937-4.199-6.742c-1.879-1.805-4.199-3.222-6.962-4.25
		c-2.763-1.037-6.021-1.55-9.778-1.55c-3.684,0-6.925,0.429-9.725,1.271c-2.8,0.848-5.138,2.028-7.015,3.539
		c-1.88,1.51-3.299,3.241-4.255,5.192c-0.957,1.942-1.449,4.08-1.438,6.245c0,2.431,0.682,4.621,2.045,6.574h0
		c1.361,1.949,3.314,3.791,5.857,5.524c2.541,1.729,5.635,3.352,9.281,4.863c3.647,1.511,7.753,3,12.321,4.475
		c8.545,2.726,16.17,5.743,22.874,9.059c6.704,3.313,12.357,7.107,16.964,11.381c4.602,4.272,8.102,9.1,10.497,14.477
		c2.395,5.377,3.592,11.454,3.592,18.232C239.335,201.184,237.916,207.606,235.08,213.244z M367.301,106.308h-69.016v36.748h62.74
		v29.577h-62.74v64.533h-38.541V75.833h107.557V106.308z M429.145,129.611v12.548c0,2.476-2.367,4.481-4.842,4.481h-0.535v16.133
		h-5.379v3.586h2.689v14.34h-6.274v3.586h2.688v34.955h-7.17v17.029h-0.383l-3.576,4.025l-3.595-4.025h0.384V219.24h-7.17v-34.955
		h2.688v-3.586h-6.273v-14.34h2.689v-3.586h-5.379v-16.133h-1.256c-2.477,0-4.121-2.005-4.121-4.481v-17.926
		c0-2.476,1.645-4.481,4.121-4.481h1.256v-8.963c0-0.99,0.442-1.793,1.432-1.793h2.425c0.627,0,1.136-0.586,1.136-1.344
		s-0.508-1.344-1.136-1.344h-3.023c-0.13,0-0.256-0.032-0.373-0.079l-0.018-0.006c-0.433-0.185-0.744-0.667-0.744-1.259
		c0-0.259,0.063-0.496,0.165-0.696c0.006-0.008,0.008-0.017,0.013-0.023c0.122-0.234,0.318-0.422,0.558-0.537l0.045-0.017
		c0.111-0.043,0.229-0.072,0.354-0.072h2.843c0.627,0,1.134-0.589,1.134-1.344c0-0.758-0.506-1.345-1.134-1.345h-2.842
		c-0.626,0-1.135-0.586-1.135-1.345s0.508-1.344,1.135-1.344h2.838c0.627,0,1.135-0.587,1.135-1.344s-0.507-1.345-1.135-1.345h-2.84
		l-0.01-0.002c-0.114-0.003-0.226-0.027-0.332-0.068c-0.023-0.009-0.049-0.015-0.072-0.026c-0.094-0.044-0.182-0.103-0.259-0.173
		c-0.028-0.026-0.057-0.052-0.083-0.08c-0.07-0.076-0.132-0.16-0.184-0.25c-0.021-0.04-0.039-0.083-0.057-0.126
		c-0.034-0.08-0.061-0.163-0.082-0.247c-0.009-0.033-0.025-0.061-0.03-0.095c-0.017-0.088-0.023-0.181-0.023-0.276
		c0-0.095,0.008-0.188,0.023-0.275c0.005-0.035,0.021-0.063,0.03-0.096c0.021-0.086,0.048-0.168,0.082-0.247
		c0.019-0.042,0.035-0.085,0.057-0.126c0.07-0.123,0.161-0.234,0.267-0.33c0.079-0.07,0.166-0.13,0.259-0.174
		c0.024-0.012,0.05-0.018,0.072-0.026c0.106-0.041,0.218-0.064,0.332-0.068l0.01-0.002h3.025c0.627,0,1.135-0.586,1.135-1.344
		c0-0.027-0.005-0.053-0.006-0.079c-0.006-0.102-0.021-0.203-0.045-0.301c-0.011-0.041-0.018-0.081-0.031-0.12
		c-0.046-0.136-0.112-0.264-0.197-0.38c-0.067-0.094-0.146-0.179-0.238-0.25c-0.006-0.006-0.016-0.009-0.022-0.015
		c-0.172-0.126-0.381-0.196-0.595-0.202h-2.425c-0.988,0-1.432-0.803-1.432-1.792v-9.838c0-0.206-0.148-0.411-0.104-0.603
		c0.03-0.333-0.021-0.631,0.172-0.843c0.476-0.75,1.309-1.266,2.263-1.266h23.66v-3.585c0-0.495,0.402-0.896,0.896-0.896
		c0.496,0,0.896,0.402,0.896,0.896v3.585h3.22c1.488,0,3.056,1.229,3.056,2.711v2.059c0,0.06,0.013,0.118,0.013,0.179
		s-0.013,0.119-0.013,0.18v4.731c0,0.99-1.164,1.793-2.154,1.793h-2.352c-0.079,0-0.155,0.013-0.229,0.03
		c-0.518,0.123-0.911,0.655-0.911,1.315c0,0.663,0.393,1.195,0.911,1.319c0.073,0.018,0.149,0.024,0.229,0.024h3.027
		c0.469,0,0.873,0.33,1.043,0.814c0.059,0.162,0.091,0.341,0.091,0.53s-0.031,0.368-0.091,0.53c-0.17,0.484-0.574,0.814-1.043,0.814
		h-3.024c-0.078,0-0.155,0.009-0.228,0.026c-0.131,0.032-0.256,0.089-0.365,0.169c-0.323,0.234-0.542,0.654-0.542,1.148
		c0,0.495,0.219,0.916,0.542,1.148l0.015,0.009c0.168,0.125,0.371,0.19,0.578,0.188h3.021c0.028,0,0.054,0.007,0.08,0.009
		c0.589,0.049,1.055,0.612,1.055,1.336s-0.466,1.287-1.055,1.336c-0.026,0.001-0.052,0.008-0.08,0.008h-2.837
		c-0.626,0-1.134,0.587-1.134,1.344s0.507,1.345,1.134,1.345h2.839c0.625,0,1.134,0.586,1.134,1.345
		c0,0.758-0.508,1.344-1.134,1.344h-3.022c-0.111,0-0.218,0.024-0.319,0.059c-0.064,0.022-0.125,0.049-0.185,0.084
		c-0.12,0.066-0.227,0.156-0.312,0.263c-0.042,0.051-0.081,0.106-0.113,0.163c-0.023,0.041-0.042,0.084-0.063,0.128
		c-0.073,0.154-0.116,0.322-0.13,0.492c-0.006,0.052-0.015,0.101-0.015,0.156c0,0.029,0.006,0.056,0.008,0.086
		c0.009,0.103,0.021,0.205,0.044,0.299c0.011,0.034,0.017,0.068,0.027,0.101c0.043,0.134,0.106,0.259,0.188,0.373
		c0.163,0.226,0.386,0.387,0.639,0.448c0.071,0.017,0.145,0.038,0.224,0.038h3.035c0.03,0,0.06,0.013,0.091,0.016
		c0.083,0.008,0.168,0.015,0.247,0.043c0.064,0.023,0.129,0.063,0.189,0.101c0.036,0.022,0.092,0.036,0.128,0.063
		c0.055,0.041,0.123,0.097,0.169,0.148c0.032,0.037,0.126,0.066,0.155,0.107c0.047,0.067,0.19,0.147,0.226,0.226
		c0.016,0.034,0.271,0.064,0.271,0.099v0.003c0,0.003-0.216,0.004-0.215,0.007c0.059,0.162-0.13,0.342-0.13,0.53
		c0,0.189-0.031,0.369-0.091,0.53c-0.17,0.484-0.574,0.814-1.042,0.814h-3.024c-0.079,0-0.157,0.009-0.229,0.026
		c-0.518,0.123-0.908,0.655-0.908,1.318c0,0.663,0.391,1.194,0.908,1.318c0.071,0.018,0.149,0.026,0.229,0.026h2.348
		c0.989,0,2.152,0.803,2.152,1.793v4.751c0,0.059,0.016,0.117,0.016,0.178s-0.017,0.117-0.017,0.177v1.166h0.535
		c2.476,0,4.842,2.005,4.842,4.481V129.611z"/>
</g>
</svg>
